<svg width="200" height="200" viewBox="0 0 200 200" fill="none" xmlns="http://www.w3.org/2000/svg">
<path fill-rule="evenodd" clip-rule="evenodd" d="M200 0H0V200H200V0ZM42.6094 165.729V153.004H21.5859C17.8203 153.004 14.5781 154.571 14.5781 160.248C14.5781 161.618 15.5039 166.512 19.6719 166.643C23.1758 166.773 27.7344 161.227 22.7109 157.768C15.4375 152.809 30.3789 152.548 35.9336 154.44C38.582 155.356 37.082 155.783 34.6992 156.46C31.3164 157.422 26.1484 158.89 28.5938 162.989C31.0156 167.043 34.543 162.25 37.3359 158.447C38.8164 156.436 40.0898 154.701 40.8906 154.701C42.875 154.701 41.75 166.316 41.75 166.316C41.75 166.316 5.25781 161.814 15.9688 180.738C18.7461 185.632 28.332 188.634 31.6367 180.999C33.7227 176.192 30.4648 174.547 28.125 173.363C26.0156 172.297 24.6484 171.606 28.5938 169.318C32.957 166.773 48.2305 170.101 38.7773 176.823L37.7422 177.547C34.7891 179.596 32.1445 181.433 34.2148 183.479C37.8516 187.067 42.9414 186.806 42.6094 180.216C42.4492 176.772 42.4844 175.098 42.5352 172.479C42.5703 170.829 42.6094 168.805 42.6094 165.729ZM26.082 175.713C29.1914 179.041 30.3125 183.152 23.5703 183.805C15.9688 184.522 14.9766 179.041 19.9336 172.972C24.9609 166.773 32.2305 164.032 27.5391 169.318C27.3945 169.482 27.1914 169.672 26.9609 169.887C25.6367 171.133 23.4336 173.209 26.082 175.713ZM52.9492 153.004H43.2969V167.1C43.2969 175.648 45.9414 189.808 61.8047 185.044C70.3359 182.464 69.7773 169.065 69.6836 166.8L69.6719 166.512V153.004C63.0625 152.939 54.4688 153.527 58.4336 158.943C60.1172 161.254 61.1562 159.553 62.4492 157.438C63.75 155.315 65.3047 152.775 68.0195 153.461C70.0391 153.965 68.7734 155.785 66.9688 158.385C63.8633 162.853 59.1602 169.622 66.7656 175.974C70.2031 178.845 60.9453 187.524 61.2109 177.736C61.3438 171.733 58.9648 171.21 56.4531 174.278C54.8828 176.275 56.8711 177.661 58.5547 178.833C59.5664 179.538 60.4688 180.166 60.418 180.803C59.6914 190.135 40.6523 172.581 44.2891 161.944L44.3906 161.626C44.8711 160.103 45.7695 157.268 48.7812 161.879C50.9336 165.176 49.8164 169.126 49.0039 172.001C48.0977 175.216 47.5664 177.086 52.418 175.191C57.9727 173.038 60.6836 167.426 52.8164 163.771C48.7812 161.879 42.8984 155.158 45.543 153.918C46.8711 153.295 48.2852 155.195 49.7344 157.139C51.1641 159.062 52.625 161.029 54.0703 160.639C57.8398 159.595 58.4336 153.004 52.9492 153.004ZM97.7812 153.004H70.4102V185.632H84.3594C88.9219 185.632 92.6914 184.196 84.957 179.106C81.8359 177.073 80.4375 179.868 79.2812 182.177C77.9922 184.76 77.0039 186.736 74.2461 180.672C68.8906 169.122 71.2031 158.877 74.5742 158.877C83.1719 158.877 82.1797 162.989 77.8828 166.447C69.4844 173.233 81.4531 175.387 83.1719 169.253L83.1953 169.161C84.0039 166.39 85.582 160.932 76.625 157.899C75.6328 157.572 71.9336 156.528 73.5195 154.962C74.5742 153.918 90.8398 152.482 89.582 157.115C89.582 158.624 88.375 160.26 87.2695 161.76C85.3125 164.411 83.6719 166.635 89.582 166.969C94.5078 167.177 93.3672 163.396 92.3203 159.91C91.3984 156.843 90.543 154.004 93.9453 154.31C101.219 154.962 100.758 169.971 91.4336 168.6C84.0312 167.491 77.2188 180.02 90.3086 176.039C98.5078 173.56 102.211 155.549 97.7812 153.004ZM120.863 185.632C127.074 185.632 128.598 180.411 128.598 177.344C128.598 175.778 128.73 163.771 120.73 165.468C115.508 166.577 113.855 165.468 114.648 163.315C115.758 160.254 118.223 161.898 120.727 163.571C122.547 164.786 124.391 166.017 125.754 165.468C130.383 163.641 131.438 153.004 125.555 153.004H100.367V185.632H107.375C107.375 185.632 108.762 182.891 105.855 181.782C100.301 179.694 108.762 170.754 115.574 176.627C117.055 177.906 116.461 179.602 115.91 181.177C115.086 183.541 114.355 185.632 120.863 185.632ZM103.02 155.793L103.145 155.68C106.25 152.809 120.133 152.548 125.289 155.68C130.516 158.877 128.332 162.858 126.215 164.424C124.102 165.99 121.258 164.163 123.109 158.877C124.961 153.657 111.539 156.528 113.59 159.726C115.641 163.119 113.922 167.948 106.117 163.902C98.4414 159.892 101.91 156.785 103.02 155.793ZM121.723 169.057C133.555 173.429 126.414 187.263 121.656 184C118.672 181.952 118.773 178.772 118.867 175.964C118.961 173.048 119.043 170.533 115.641 170.101C113.879 169.863 113.289 170.868 112.648 171.958C112.062 172.957 111.434 174.028 109.82 174.278C104.598 175.061 102.68 172.581 103.078 170.101C103.938 164.75 109.754 164.75 121.723 169.057ZM158.887 165.729V153.004H137.863C134.094 153.004 130.855 154.571 130.855 160.248C130.855 161.618 131.781 166.512 135.945 166.643C139.449 166.773 144.012 161.227 138.984 157.768C131.715 152.809 146.656 152.548 152.207 154.44C154.855 155.356 153.355 155.783 150.973 156.46C147.59 157.422 142.426 158.89 144.871 162.989C147.289 167.041 150.812 162.253 153.609 158.451C155.09 156.438 156.367 154.701 157.168 154.701C159.148 154.701 158.027 166.316 158.027 166.316C158.027 166.316 121.531 161.814 132.242 180.738C135.02 185.632 144.605 188.634 147.91 180.999C150 176.192 146.742 174.547 144.398 173.364C142.289 172.298 140.922 171.606 144.871 169.318C149.234 166.773 164.504 170.101 155.051 176.823L154.004 177.553C151.062 179.6 148.418 181.435 150.488 183.479C154.125 187.067 159.215 186.806 158.887 180.216C158.727 176.818 158.758 175.143 158.809 172.583C158.844 170.915 158.887 168.871 158.887 165.729ZM142.359 175.713C145.465 179.041 146.59 183.152 139.844 183.805C132.242 184.522 131.25 179.041 136.211 172.972C141.234 166.773 148.504 164.032 143.812 169.318C143.668 169.481 143.465 169.672 143.234 169.887C141.91 171.132 139.707 173.209 142.359 175.713ZM169.223 153.004H159.57V167.1C159.57 175.648 162.215 189.808 178.082 185.044C187.137 182.304 185.949 167.361 185.949 166.512V153.004C179.336 152.939 170.742 153.527 174.711 158.943C176.395 161.254 177.434 159.554 178.727 157.439C180.023 155.316 181.578 152.774 184.297 153.461C186.312 153.965 185.047 155.785 183.242 158.384C180.137 162.851 175.434 169.621 183.039 175.974C186.477 178.845 177.223 187.524 177.484 177.736C177.617 171.733 175.238 171.21 172.727 174.278C171.156 176.274 173.148 177.66 174.828 178.833C175.84 179.538 176.742 180.166 176.691 180.803C175.965 190.135 156.926 172.581 160.562 161.944C161.023 160.574 161.816 156.92 165.059 161.879C167.211 165.175 166.094 169.126 165.281 172.001C164.371 175.216 163.844 177.086 168.695 175.191C174.246 173.038 176.957 167.426 169.09 163.771C165.059 161.879 159.172 155.158 161.816 153.918C163.145 153.295 164.559 155.194 166.004 157.138C167.434 159.062 168.898 161.029 170.348 160.639C174.113 159.595 174.711 153.004 169.223 153.004Z" fill="#232323" style="fill:#232323;fill:color(display-p3 0.1373 0.1373 0.1373);fill-opacity:1;"/>
</svg>
