<svg width="3297" height="725" viewBox="0 0 3297 725" fill="none" xmlns="http://www.w3.org/2000/svg">
<path d="M0.949219 540C0.949219 425 75.9492 343 185.949 300C164.949 322 142.949 370 142.949 451C142.949 540 187.949 621 270.949 620C285.949 620 301.949 617 317.949 611C270.949 476 210.949 298 178.949 261C156.949 235 124.949 231 100.949 235L99.9492 232C133.949 212 171.949 200 212.949 200C272.949 200 339.949 228 369.949 306C404.949 396 446.949 514 485.949 618C501.949 661 522.949 694 536.949 708H351.949L323.949 628C295.949 687 249.949 716 181.949 716C75.9492 716 0.949219 640 0.949219 540ZM490.207 285V281L686.207 200V507C686.207 606 700.207 662 763.207 662C798.207 662 819.207 647 839.207 630L841.207 435C841.207 339 811.207 296 795.207 285V281L991.207 200V533C991.207 633 1018.21 689 1041.21 708H838.207L839.207 654C815.207 679 765.207 716 704.207 716C604.207 716 536.207 662 536.207 520V435C536.207 339 506.207 296 490.207 285ZM1049.59 242V234H1262.59C1209.59 215 1049.59 156 1049.59 77.9999C1049.59 17.9999 1109.59 -4.29153e-06 1156.59 -4.29153e-06C1202.59 -4.29153e-06 1244.59 11 1304.59 31C1361.59 49.9999 1430.59 57 1441.59 56V196C1290.59 95 1257.59 19 1215.59 19C1195.59 19 1189.59 35 1189.59 59C1189.59 149 1280.59 234 1441.59 234V243H1338.59V533C1338.59 633 1362.59 689 1385.59 708H1182.59L1188.59 414C1191.59 292 1136.59 242 1049.59 242ZM1459.93 108V104L1655.93 7.99995V277C1662.93 263 1709.93 200 1808.93 200C1908.93 200 2012.93 267 2012.93 446C2012.93 640 1889.93 716 1804.93 716C1721.93 716 1670.93 665 1655.93 653L1499.93 708L1505.93 258C1506.93 158 1475.93 119 1459.93 108ZM1655.93 303V629C1672.93 647 1701.93 677 1751.93 677C1817.93 677 1854.93 602 1853.93 461C1851.93 306 1810.93 236 1746.93 236C1703.93 236 1663.93 282 1655.93 303ZM2042.94 540C2042.94 425 2117.94 343 2227.94 300C2206.94 322 2184.94 370 2184.94 451C2184.94 540 2229.94 621 2312.94 620C2327.94 620 2343.94 617 2359.94 611C2312.94 476 2252.94 298 2220.94 261C2198.94 235 2166.94 231 2142.94 235L2141.94 232C2175.94 212 2213.94 200 2254.94 200C2314.94 200 2381.94 228 2411.94 306C2446.94 396 2488.94 514 2527.94 618C2543.94 661 2564.94 694 2578.94 708H2393.94L2365.94 628C2337.94 687 2291.94 716 2223.94 716C2117.94 716 2042.94 640 2042.94 540ZM2532.2 285V281L2728.2 200V507C2728.2 606 2742.2 662 2805.2 662C2840.2 662 2861.2 647 2881.2 630L2883.2 435C2883.2 339 2853.2 296 2837.2 285V281L3033.2 200V533C3033.2 633 3060.2 689 3083.2 708H2880.2L2881.2 654C2857.2 679 2807.2 716 2746.2 716C2646.2 716 2578.2 662 2578.2 520V435C2578.2 339 2548.2 296 2532.2 285ZM3207.58 725C3156.58 725 3116.58 686 3116.58 636C3116.58 587 3156.58 545 3207.58 545C3259.58 545 3296.58 587 3296.58 636C3296.58 686 3259.58 725 3207.58 725Z" fill="#232323" style="fill:#232323;fill:color(display-p3 0.1373 0.1373 0.1373);fill-opacity:1;"/>
</svg>
