<svg width="302" height="73" viewBox="0 0 302 73" fill="none" xmlns="http://www.w3.org/2000/svg">
<path d="M0.263281 54.5C0.263281 43.2 7.86328 34.6 19.6633 29.5C16.3633 32.2 10.7633 38.8 10.7633 48.3C10.7633 57.7 15.4633 65 24.3633 65C27.4633 65 30.7633 63.9 33.0633 61.4C28.4633 47.9 22.4633 30.2 19.6633 26.4C17.3633 23 13.2633 22.5 9.86328 23.3L9.76328 23.1C12.5633 21.3 16.2633 20.2 19.7633 20.2C24.3633 20.2 29.9633 22.1 32.8633 29.3C35.5633 36 42.7633 55.8 44.8633 61.4C46.7633 66.4 48.5633 69.5 50.2633 71H36.3633L33.5633 62.6C30.2633 68.6 25.6633 71.8 18.1633 71.8C7.76328 71.8 0.263281 64.6 0.263281 54.5ZM45.9664 27.3V26.9L61.0664 20.2V50.9C61.0664 62.6 63.9664 67.4 70.7664 67.4C75.0664 67.4 78.5664 65.2 81.2664 62.4L81.4664 42.7C81.4664 34.1 79.1664 29.1 76.8664 27.3V26.9L91.9664 20.2V53.5C91.9664 63.1 94.4664 68.9 96.9664 71H81.1664L81.2664 64.4C78.0664 68.3 71.9664 71.8 66.0664 71.8C56.3664 71.8 50.5664 66.4 50.5664 52.2V42.7C50.5664 34.1 48.2664 29.1 45.9664 27.3ZM97.4031 24.5V23.7H119.103C110.703 21.6 97.4031 14.6 97.4031 7.09999C97.4031 2.3 102.003 0.2 106.303 0.2C110.503 0.2 114.803 1.8 119.903 3.79999C124.203 5.5 129.303 6.4 131.803 6.8V18.5C118.003 9 115.303 1.99999 111.003 1.99999C109.203 1.99999 108.203 3.39999 108.203 6.2C108.203 15.1 118.203 23.7 131.803 23.7V24.5H120.803V53.5C120.803 63.1 123.003 68.9 125.503 71H109.703L110.303 38.6C110.603 28 105.003 24.5 97.4031 24.5ZM133.662 8.8V8.4L148.762 0.999995V28.5C150.862 24.8 156.462 20.2 163.862 20.2C174.362 20.2 184.762 28.4 184.762 45.3C184.762 63.8 172.962 71.8 163.662 71.8C156.362 71.8 150.962 67.5 148.662 65.3L137.662 71L138.262 23.8C138.362 15.1 135.962 10.6 133.662 8.8ZM148.762 30.5V63.4C150.762 65.3 154.262 68.1 159.362 68.1C166.462 68.1 173.362 61.3 173.362 46.3C173.262 31.4 166.962 23.8 158.962 23.8C154.762 23.8 150.462 27.1 148.762 30.5ZM187.666 54.5C187.666 43.2 195.266 34.6 207.066 29.5C203.766 32.2 198.166 38.8 198.166 48.3C198.166 57.7 202.866 65 211.766 65C214.866 65 218.166 63.9 220.466 61.4C215.866 47.9 209.866 30.2 207.066 26.4C204.766 23 200.666 22.5 197.266 23.3L197.166 23.1C199.966 21.3 203.666 20.2 207.166 20.2C211.766 20.2 217.366 22.1 220.266 29.3C222.966 36 230.166 55.8 232.266 61.4C234.166 66.4 235.966 69.5 237.666 71H223.766L220.966 62.6C217.666 68.6 213.066 71.8 205.566 71.8C195.166 71.8 187.666 64.6 187.666 54.5ZM233.369 27.3V26.9L248.469 20.2V50.9C248.469 62.6 251.369 67.4 258.169 67.4C262.469 67.4 265.969 65.2 268.669 62.4L268.869 42.7C268.869 34.1 266.569 29.1 264.269 27.3V26.9L279.369 20.2V53.5C279.369 63.1 281.869 68.9 284.369 71H268.569L268.669 64.4C265.469 68.3 259.369 71.8 253.469 71.8C243.769 71.8 237.969 66.4 237.969 52.2V42.7C237.969 34.1 235.669 29.1 233.369 27.3ZM295.005 72.5C291.005 72.5 287.905 69.3 287.905 65.5C287.905 61.6 291.005 58.4 295.005 58.4C299.005 58.4 301.905 61.6 301.905 65.5C301.905 69.3 299.005 72.5 295.005 72.5Z" fill="#232323" style="fill:#232323;fill:color(display-p3 0.1373 0.1373 0.1373);fill-opacity:1;"/>
</svg>
